<svg width="1512" height="423" viewBox="0 0 1512 423" fill="none" xmlns="http://www.w3.org/2000/svg">
<g opacity="0.5">
<path d="M1512.36 25.7272C1494.03 95.303 1471.5 260.976 1323.09 339.36C1217.23 395.749 942.797 412.976 755.046 375.071C639.546 351.753 388.282 314.589 190.228 348.659C57.041 371.548 -8.71159 392.742 -64.5449 422.506" stroke="#437EE2"/>
<path d="M1481.82 1C1463.48 70.5421 1443.58 238.202 1307.27 315.308C1202.76 374.869 942.433 408.115 754.682 370.229C639.182 346.921 352.654 302.184 156.045 333.906C22.6797 355.405 -18.1667 360.808 -74 390.558" stroke="#437EE2"/>
</g>
<g filter="url(#filter0_f_1347_1273)">
<circle cx="1398.91" cy="223.455" r="34" fill="#0050D8" fill-opacity="0.9"/>
</g>
<path d="M1425.66 224.135C1425.66 238.863 1413.25 250.835 1397.91 250.835C1382.57 250.835 1370.17 238.863 1370.17 224.135C1370.17 209.406 1382.57 197.435 1397.91 197.435C1413.25 197.435 1425.66 209.406 1425.66 224.135Z" fill="#0050D8" stroke="#0050D8"/>
<defs>
<filter id="filter0_f_1347_1273" x="1347.91" y="172.455" width="102" height="102" filterUnits="userSpaceOnUse" color-interpolation-filters="sRGB">
<feFlood flood-opacity="0" result="BackgroundImageFix"/>
<feBlend mode="normal" in="SourceGraphic" in2="BackgroundImageFix" result="shape"/>
<feGaussianBlur stdDeviation="8.5" result="effect1_foregroundBlur_1347_1273"/>
</filter>
</defs>
</svg>
